<svg xmlns="http://www.w3.org/2000/svg" width="520" height="250" viewBox="0 0 520 250">
  <rect width="520" height="250" fill="white"/>
  <text x="20" y="24" font-size="16" font-family="Arial">Illustrative Attention Pattern for a Long Translation Sentence</text>
  <rect x="30" y="60" width="70" height="28" fill="#d8efe2" stroke="#2f6f4f"/>
  <rect x="120" y="60" width="70" height="28" fill="#d8efe2" stroke="#2f6f4f"/>
  <rect x="210" y="60" width="70" height="28" fill="#d8efe2" stroke="#2f6f4f"/>
  <rect x="300" y="60" width="70" height="28" fill="#d8efe2" stroke="#2f6f4f"/>
  <rect x="390" y="60" width="90" height="28" fill="#d8efe2" stroke="#2f6f4f"/>
  <text x="42" y="79" font-size="11" font-family="Arial">Although</text>
  <text x="133" y="79" font-size="11" font-family="Arial">the model</text>
  <text x="225" y="79" font-size="11" font-family="Arial">remains</text>
  <text x="317" y="79" font-size="11" font-family="Arial">stable</text>
  <text x="405" y="79" font-size="11" font-family="Arial">under noise</text>
  <rect x="30" y="160" width="70" height="28" fill="#e8eef8" stroke="#345a9c"/>
  <rect x="120" y="160" width="70" height="28" fill="#e8eef8" stroke="#345a9c"/>
  <rect x="210" y="160" width="70" height="28" fill="#e8eef8" stroke="#345a9c"/>
  <rect x="300" y="160" width="70" height="28" fill="#e8eef8" stroke="#345a9c"/>
  <rect x="390" y="160" width="90" height="28" fill="#e8eef8" stroke="#345a9c"/>
  <text x="49" y="179" font-size="11" font-family="Arial">Obwohl</text>
  <text x="140" y="179" font-size="11" font-family="Arial">das Modell</text>
  <text x="231" y="179" font-size="11" font-family="Arial">unter</text>
  <text x="320" y="179" font-size="11" font-family="Arial">Rauschen</text>
  <text x="412" y="179" font-size="11" font-family="Arial">stabil bleibt</text>
  <line x1="65" y1="88" x2="435" y2="160" stroke="#d94841" stroke-width="2"/>
  <line x1="245" y1="88" x2="435" y2="160" stroke="#d94841" stroke-width="2"/>
  <line x1="430" y1="88" x2="325" y2="160" stroke="#345a9c" stroke-width="2"/>
  <text x="35" y="220" font-size="12" font-family="Arial">Red lines illustrate one head linking clause setup to the postponed main verb.</text>
</svg>
